<svg width="64" height="64" viewBox="0 0 64 64" xmlns="http://www.w3.org/2000/svg">
  <defs>
    <linearGradient id="grad1" x1="0%" y1="0%" x2="100%" y2="100%">
      <stop offset="0%" style="stop-color:#1e3142;stop-opacity:1" />
      <stop offset="100%" style="stop-color:#2c5aa0;stop-opacity:1" />
    </linearGradient>
  </defs>
  
  <!-- Background circle -->
  <circle cx="32" cy="32" r="30" fill="url(#grad1)" stroke="#4caf50" stroke-width="2"/>
  
  <!-- Data bars -->
  <rect x="16" y="40" width="4" height="12" fill="#ffffff" opacity="0.9"/>
  <rect x="22" y="35" width="4" height="17" fill="#ffffff" opacity="0.9"/>
  <rect x="28" y="30" width="4" height="22" fill="#ffffff" opacity="0.9"/>
  <rect x="34" y="25" width="4" height="27" fill="#ffffff" opacity="0.9"/>
  <rect x="40" y="20" width="4" height="32" fill="#ffffff" opacity="0.9"/>
  <rect x="46" y="15" width="4" height="37" fill="#ffffff" opacity="0.9"/>
  
  <!-- Chart line -->
  <path d="M 12 45 Q 20 40, 28 35 Q 36 30, 44 25 Q 52 20, 60 15" 
        stroke="#4caf50" stroke-width="3" fill="none" stroke-linecap="round"/>
  
  <!-- Data points -->
  <circle cx="20" cy="40" r="2" fill="#4caf50"/>
  <circle cx="28" cy="35" r="2" fill="#4caf50"/>
  <circle cx="36" cy="30" r="2" fill="#4caf50"/>
  <circle cx="44" cy="25" r="2" fill="#4caf50"/>
  <circle cx="52" cy="20" r="2" fill="#4caf50"/>
</svg> 